<svg xmlns="http://www.w3.org/2000/svg" width="58.502" height="25" viewBox="0 0 58.502 25"><defs><style>.a{fill:#ad2020;}.b,.c{fill:#fff;}.b{opacity:0;}</style></defs><path class="a" d="M14.937,0H43.565C51.815,0,58.5,5.373,58.5,12v1c0,6.627-6.687,12-14.937,12H14.937C6.687,25,0,19.627,0,13V12C0,5.373,6.687,0,14.937,0Z"/><path class="b" d="M18.6,9.581A9.019,9.019,0,1,1,9.581.563,9.019,9.019,0,0,1,18.6,9.581ZM8.538,14.356l6.691-6.691a.582.582,0,0,0,0-.823l-.823-.823a.582.582,0,0,0-.823,0L8.126,11.476,5.579,8.929a.582.582,0,0,0-.823,0l-.823.823a.582.582,0,0,0,0,.823l3.782,3.782a.582.582,0,0,0,.823,0Z" transform="translate(35.92 2.919)"/><path class="c" d="M12.395,3.375a9.02,9.02,0,1,0,9.02,9.02A8.989,8.989,0,0,0,12.395,3.375Zm4.51,12.267L15.642,16.9l-3.247-3.247L9.148,16.9,7.885,15.642l3.247-3.247L7.885,9.148,9.148,7.885l3.247,3.247,3.247-3.247,1.263,1.263-3.247,3.247Z" transform="translate(-0.164 0.105)"/></svg>