<svg xmlns="http://www.w3.org/2000/svg" width="727" height="50" viewBox="0 0 727 50"><defs><style>.a{fill:#ebebeb;}.b,.c{stroke:none;}.c{fill:rgba(196,200,208,0.4);}</style></defs><g class="a"><path class="b" d="M5,0H722c2.761,0,5,1.964,5,4.386V45.614c0,2.422-2.239,4.386-5,4.386H5c-2.761,0-5-1.964-5-4.386V4.386C0,1.964,2.239,0,5,0Z"/><path class="c" d="M 5 2 C 4.14990234375 2 3.36273193359375 2.2799072265625 2.78338623046875 2.788089752197266 C 2.2781982421875 3.231273651123047 2 3.798728942871094 2 4.386001586914062 L 2 45.61399841308594 C 2 46.20127105712891 2.2781982421875 46.76872634887695 2.78338623046875 47.21191024780273 C 3.36273193359375 47.7200927734375 4.14990234375 48 5 48 L 722 48 C 722.8499755859375 48 723.6372680664062 47.7200927734375 724.2166137695312 47.21181869506836 C 724.7218017578125 46.76872634887695 725 46.20127105712891 725 45.61399841308594 L 725 4.386001586914062 C 725 3.798728942871094 724.7218017578125 3.231273651123047 724.2166137695312 2.788181304931641 C 723.6372680664062 2.2799072265625 722.8499755859375 2 722 2 L 5 2 M 5 0 L 722 0 C 724.7613525390625 0 727 1.963634490966797 727 4.386001586914062 L 727 45.61399841308594 C 727 48.03636169433594 724.7613525390625 50 722 50 L 5 50 C 2.238525390625 50 0 48.03636169433594 0 45.61399841308594 L 0 4.386001586914062 C 0 1.963634490966797 2.238525390625 0 5 0 Z"/></g></svg>