<svg xmlns="http://www.w3.org/2000/svg" width="483" height="270.331" viewBox="0 0 483 270.331"><defs><style>.a{fill:#e6e6e6;}.b{fill:#fff;}.c{fill:#2f2e41;}.d{fill:#3f3d56;}.e{fill:#feb8b8;}.f{fill:#ccc;}.g{fill:#6c63ff;}</style></defs><g transform="translate(0 0)"><path class="a" d="M266.631,672.209H192.841s-1.5-21.938,7.354-22.187,7.852,9.722,18.946-3.989,24.555-12.963,26.3-4.861-3.365,14.583,5.983,12.589S274.234,657,266.631,672.209Z" transform="translate(-164.983 -402.908)"/><path class="b" d="M260.628,672.1l-.249-.01c.581-14.443,3.606-23.722,6.041-28.965,2.644-5.691,5.192-8,5.218-8.018l.166.186c-.025.023-2.543,2.3-5.166,7.956C264.215,648.468,261.207,657.71,260.628,672.1Z" transform="translate(-197.121 -402.792)"/><path class="b" d="M311.523,690.92l-.239-.07a38.67,38.67,0,0,1,9.736-16.2l.167.185A38.408,38.408,0,0,0,311.523,690.92Z" transform="translate(-221.31 -421.583)"/><path class="b" d="M209.15,685.961l-.247-.034a27.15,27.15,0,0,0-2.442-15.87,21.849,21.849,0,0,0-3.852-5.624l.173-.18a22.124,22.124,0,0,1,3.905,5.693A27.4,27.4,0,0,1,209.15,685.961Z" transform="translate(-169.67 -416.642)"/><path class="c" d="M269.391,664.359H177.628l-.021-.311c-.052-.773-1.223-19.013,4.687-25.522a6.473,6.473,0,0,1,4.73-2.27,14.081,14.081,0,0,1,8.226,2.491c3.681,2.183,6.112,3.626,14.952-7.3,9.577-11.836,19.91-14.383,25.85-12.967a9.22,9.22,0,0,1,7.257,7.1,31.418,31.418,0,0,1,.312,9.171c-.2,2.75-.36,4.921.77,5.905.945.821,2.824.9,5.921.235,6.3-1.344,15.088-.194,19.5,5.506,2.373,3.067,4.243,8.64-.327,17.781Zm-91.137-.667h90.724c3.406-6.909,3.512-12.746.3-16.89-4.047-5.229-12.537-6.6-18.832-5.262-3.365.718-5.369.6-6.5-.384-1.381-1.2-1.211-3.522-1-6.455a30.938,30.938,0,0,0-.3-8.982,8.575,8.575,0,0,0-6.76-6.587c-5.751-1.372-15.8,1.143-25.176,12.738-9.2,11.374-11.975,9.73-15.811,7.453a13.372,13.372,0,0,0-7.867-2.4,5.83,5.83,0,0,0-4.255,2.052c-5.31,5.85-4.663,22.252-4.532,24.718Z" transform="translate(-157.729 -394.724)"/><path class="d" d="M838.152,594.713H747.769l-.017-.506-4.316-123.429h99.049Zm-89.37-1.05h88.355l4.26-121.836H744.522Z" transform="translate(-426.657 -324.708)"/><g transform="translate(335.797 168.94)"><rect class="d" width="6.875" height="85.073"/><rect class="d" width="6.875" height="85.073" transform="translate(27.068)"/><rect class="d" width="6.875" height="85.073" transform="translate(54.137)"/></g><path class="d" d="M939.551,461.4l-.444-.28L826.838,390.17l9.739-15.41.444.28,112.267,70.948ZM828.288,389.844,939.224,459.95l8.617-13.635L836.9,376.208Z" transform="translate(-466.288 -279.083)"/><path class="d" d="M961.9,390.393a20.184,20.184,0,0,0-30.765,19.98l5.353,3.383a15.925,15.925,0,1,1,15.209,9.615l5.353,3.383a20.184,20.184,0,0,0,4.854-36.362Z" transform="translate(-515.746 -285.024)"/><rect class="d" width="477.067" height="1.05" transform="translate(0 269.281)"/><g transform="translate(151.542 0)"><path class="e" d="M526.671,665.2h-7.644l-3.638-29.482h11.284Z" transform="translate(-469.838 -403.085)"/><path class="c" d="M494.234,697.015h24.022v-9.281H503.386a9.152,9.152,0,0,0-9.152,9.152h0Z" transform="translate(-459.785 -427.799)"/><path class="e" d="M531.766,586.44l5.272,5.534,23.854-17.7-7.781-8.168Z" transform="translate(-477.62 -370.005)"/><path class="c" d="M536.788,610.48l-10.26-10.765-6.719,6.4,16.575,17.392.093-.089a9.154,9.154,0,0,0,.311-12.942Z" transform="translate(-471.938 -385.975)"/><path class="e" d="M429.541,373.439a6.27,6.27,0,0,1,3-9.132l30.009-76.481,11.7,7L440.91,368.2a6.3,6.3,0,0,1-11.37,5.239Z" transform="translate(-428.596 -237.774)"/><path class="e" d="M602.248,386.834a6.269,6.269,0,0,1-5.63-7.794l-44.271-69.208,12.539-5.353,39.8,70.076a6.3,6.3,0,0,1-2.438,12.281Z" transform="translate(-487.399 -245.687)"/><path class="c" d="M493.853,431.374l7.836,116.466,18.727-1.652,3.855-85.926,10.465,36.9,22.582,1.652-8.938-72.951Z" transform="translate(-459.604 -303.367)"/><path class="c" d="M554.113,551.224l-3.306,5.508L527.676,572.7l16.524,8.813s31.946-17.625,29.192-23.133Z" transform="translate(-475.676 -362.933)"/><path class="f" d="M462.607,310.378l6.519-18.369a32.8,32.8,0,0,1,16.969-18.72h0a46.934,46.934,0,0,1,27.545-1.508l2.372.589a45.851,45.851,0,0,1,17.386,8.4c4.017,3.167,7.631,7.176,7.953,11.49a.132.132,0,0,0,.008.027c1.113,4.877,1.663,30.213,1.663,30.213h-9.814l1.552,34.149-.125-.247s-56.606,10.712-56.606,5.2V326.351l-1.16-12.764Z" transform="translate(-444.757 -229.491)"/><circle class="e" cx="15.687" cy="15.687" r="15.687" transform="translate(54.999 6.143)"/><path class="c" d="M551.361,207.251l12.18.488c1.532,0,3.206-.059,4.373-1.05,1.758-1.5,1.464-4.317.522-6.424-2.624-5.869-8.478-7.971-14.905-7.8s-13.163,2.351-16.624,7.767a25.242,25.242,0,0,0-3.093,18.549,20.224,20.224,0,0,1,16.536-11.53Z" transform="translate(-478.326 -192.456)"/></g><g transform="translate(252.016 84.525)"><path class="g" d="M664.928,437.215l-44.086-30.9a1.893,1.893,0,0,1-.463-2.632l34.6-49.372a1.893,1.893,0,0,1,2.632-.463l44.086,30.9a1.893,1.893,0,0,1,.463,2.632l-34.6,49.371a1.893,1.893,0,0,1-2.633.464Z" transform="translate(-620.038 -353.509)"/><path class="b" d="M699.967,428.123,674.1,409.993a2.782,2.782,0,1,1,3.193-4.556l25.869,18.13a2.782,2.782,0,0,1-3.193,4.556Z" transform="translate(-645.162 -377.944)"/><path class="b" d="M688.655,444.264l-25.869-18.13a2.782,2.782,0,0,1,3.193-4.556l25.869,18.13a2.782,2.782,0,1,1-3.193,4.556Z" transform="translate(-639.787 -385.614)"/><path class="b" d="M677.221,460.579l-25.869-18.131a2.782,2.782,0,0,1,3.193-4.556l25.869,18.13a2.782,2.782,0,1,1-3.193,4.556Z" transform="translate(-634.354 -393.366)"/><path class="b" d="M714.179,406.25l-10.02-7.022a2.782,2.782,0,1,1,3.193-4.556l10.02,7.023a2.782,2.782,0,1,1-3.193,4.556Z" transform="translate(-659.447 -372.829)"/></g></g></svg>